<?xml version="1.0" encoding="UTF-8" standalone="no"?>
<!DOCTYPE svg PUBLIC "-//W3C//DTD SVG 1.1//EN"
 "http://www.w3.org/Graphics/SVG/1.1/DTD/svg11.dtd">
<!-- Generated by graphviz version 12.1.2 (20240928.0832)
 -->
<!-- Pages: 1 -->
<svg width="785pt" height="427pt"
 viewBox="0.00 0.00 784.62 426.50" xmlns="http://www.w3.org/2000/svg" xmlns:xlink="http://www.w3.org/1999/xlink">
<g id="graph0" class="graph" transform="scale(1 1) rotate(0) translate(4 422.5)">
<!-- cad3 -->
<g id="node1" class="node">
<title>cad3</title>
<path fill="whitesmoke" stroke="black" d="M304.75,-418.5C304.75,-418.5 135,-418.5 135,-418.5 129,-418.5 123,-412.5 123,-406.5 123,-406.5 123,-394.5 123,-394.5 123,-388.5 129,-382.5 135,-382.5 135,-382.5 304.75,-382.5 304.75,-382.5 310.75,-382.5 316.75,-388.5 316.75,-394.5 316.75,-394.5 316.75,-406.5 316.75,-406.5 316.75,-412.5 310.75,-418.5 304.75,-418.5"/>
<text text-anchor="middle" x="219.88" y="-395.43" font-family="Verdana" font-size="16.00"> Input 3D CAD Model </text>
</g>
<!-- rigid -->
<g id="node3" class="node">
<title>rigid</title>
<polygon fill="pink" stroke="black" points="317.5,-329.25 116.25,-329.25 116.25,-261.75 323.5,-261.75 323.5,-323.25 317.5,-329.25"/>
<polyline fill="none" stroke="black" points="317.5,-329.25 317.5,-323.25"/>
<polyline fill="none" stroke="black" points="323.5,-323.25 317.5,-323.25"/>
<text text-anchor="middle" x="219.88" y="-310.05" font-family="Verdana" font-size="16.00"> Input Rigid Model </text>
<text text-anchor="middle" x="219.88" y="-270.8" font-family="Verdana" font-size="16.00"> part.SurfaceModel get </text>
</g>
<!-- cad3&#45;&gt;rigid -->
<g id="edge3" class="edge">
<title>cad3&#45;&gt;rigid</title>
<path fill="none" stroke="black" d="M219.88,-382.03C219.88,-370.71 219.88,-355.41 219.88,-340.89"/>
<polygon fill="black" stroke="black" points="223.38,-341.01 219.88,-331.01 216.38,-341.01 223.38,-341.01"/>
<text text-anchor="middle" x="306.5" y="-351.2" font-family="Cascadia Mono" font-size="14.00"> Part.Load(modelFile)</text>
</g>
<!-- cad2 -->
<g id="node2" class="node">
<title>cad2</title>
<path fill="whitesmoke" stroke="black" d="M681.12,-418.5C681.12,-418.5 492.62,-418.5 492.62,-418.5 486.62,-418.5 480.62,-412.5 480.62,-406.5 480.62,-406.5 480.62,-394.5 480.62,-394.5 480.62,-388.5 486.62,-382.5 492.62,-382.5 492.62,-382.5 681.12,-382.5 681.12,-382.5 687.12,-382.5 693.12,-388.5 693.12,-394.5 693.12,-394.5 693.12,-406.5 693.12,-406.5 693.12,-412.5 687.12,-418.5 681.12,-418.5"/>
<text text-anchor="middle" x="586.88" y="-395.43" font-family="Verdana" font-size="16.00"> Input 2D CAD Drawing </text>
</g>
<!-- flat -->
<g id="node5" class="node">
<title>flat</title>
<polygon fill="lightcyan" stroke="black" points="664.25,-208.5 503.5,-208.5 503.5,-141 670.25,-141 670.25,-202.5 664.25,-208.5"/>
<polyline fill="none" stroke="black" points="664.25,-208.5 664.25,-202.5"/>
<polyline fill="none" stroke="black" points="670.25,-202.5 664.25,-202.5"/>
<text text-anchor="middle" x="586.88" y="-189.3" font-family="Verdana" font-size="16.00"> Flat Part Drawing </text>
<text text-anchor="middle" x="586.88" y="-150.05" font-family="Verdana" font-size="16.00"> part.Dwg get </text>
</g>
<!-- cad2&#45;&gt;flat -->
<g id="edge1" class="edge">
<title>cad2&#45;&gt;flat</title>
<path fill="none" stroke="black" d="M586.88,-382.31C586.88,-347.92 586.88,-269.69 586.88,-219.98"/>
<polygon fill="black" stroke="black" points="590.38,-220.13 586.88,-210.13 583.38,-220.13 590.38,-220.13"/>
<text text-anchor="middle" x="681.75" y="-290.82" font-family="Cascadia Mono" font-size="14.00"> Part.Load(drawingFile)</text>
</g>
<!-- foldable -->
<g id="node4" class="node">
<title>foldable</title>
<polygon fill="lightcyan" stroke="black" points="306.62,-208.5 127.12,-208.5 127.12,-141 312.62,-141 312.62,-202.5 306.62,-208.5"/>
<polyline fill="none" stroke="black" points="306.62,-208.5 306.62,-202.5"/>
<polyline fill="none" stroke="black" points="312.62,-202.5 306.62,-202.5"/>
<text text-anchor="middle" x="219.88" y="-189.3" font-family="Verdana" font-size="16.00"> Foldable Part Model </text>
<text text-anchor="middle" x="219.88" y="-150.05" font-family="Verdana" font-size="16.00"> part.Model get </text>
</g>
<!-- rigid&#45;&gt;foldable -->
<g id="edge4" class="edge">
<title>rigid&#45;&gt;foldable</title>
<path fill="none" stroke="black" d="M219.88,-261.42C219.88,-248.55 219.88,-233.62 219.88,-219.86"/>
<polygon fill="black" stroke="black" points="223.38,-220.16 219.88,-210.16 216.38,-220.16 223.38,-220.16"/>
<text text-anchor="middle" x="306.5" y="-230.45" font-family="Cascadia Mono" font-size="14.00"> part.SheetMetalize()</text>
</g>
<!-- foldable&#45;&gt;flat -->
<g id="edge7" class="edge">
<title>foldable&#45;&gt;flat</title>
<path fill="none" stroke="black" d="M312.96,-174.75C367.79,-174.75 436.99,-174.75 492.11,-174.75"/>
<polygon fill="black" stroke="black" points="491.78,-178.25 501.78,-174.75 491.78,-171.25 491.78,-178.25"/>
<text text-anchor="middle" x="408.06" y="-181.7" font-family="Cascadia Mono" font-size="14.00"> &#160;part.UnfoldTo2D() &#160;</text>
</g>
<!-- bend -->
<g id="node7" class="node">
<title>bend</title>
<polygon fill="lightyellow" stroke="black" points="175.75,-87.75 172.75,-91.75 151.75,-91.75 148.75,-87.75 0,-87.75 0,0 175.75,0 175.75,-87.75"/>
<text text-anchor="middle" x="87.88" y="-68.55" font-family="Verdana" font-size="16.00">Bend CAM</text>
<text text-anchor="middle" x="87.88" y="-48.3" font-family="Verdana" font-size="16.00">Technology</text>
<text text-anchor="middle" x="87.88" y="-9.05" font-family="Verdana" font-size="16.00"> part.BendTech get </text>
</g>
<!-- foldable&#45;&gt;bend -->
<g id="edge5" class="edge">
<title>foldable&#45;&gt;bend</title>
<path fill="none" stroke="black" d="M126.64,-155.57C110.3,-148.14 95.3,-137.7 85.12,-123 80.35,-116.09 78.04,-107.96 77.29,-99.6"/>
<polygon fill="black" stroke="black" points="80.79,-99.62 77.16,-89.66 73.79,-99.71 80.79,-99.62"/>
<text text-anchor="middle" x="180" y="-109.7" font-family="Cascadia Mono" font-size="14.00">part.MakeBendTech(...) </text>
</g>
<!-- fold -->
<g id="node8" class="node">
<title>fold</title>
<polygon fill="lightyellow" stroke="black" points="384.62,-87.75 381.62,-91.75 360.62,-91.75 357.62,-87.75 217.12,-87.75 217.12,0 384.62,0 384.62,-87.75"/>
<text text-anchor="middle" x="300.88" y="-68.55" font-family="Verdana" font-size="16.00">Fold CAM</text>
<text text-anchor="middle" x="300.88" y="-48.3" font-family="Verdana" font-size="16.00">Technology</text>
<text text-anchor="middle" x="300.88" y="-9.05" font-family="Verdana" font-size="16.00"> part.FoldTech get </text>
</g>
<!-- foldable&#45;&gt;fold -->
<g id="edge6" class="edge">
<title>foldable&#45;&gt;fold</title>
<path fill="none" stroke="black" d="M264.49,-140.61C269.88,-135.18 274.88,-129.27 278.88,-123 283.51,-115.73 287.18,-107.47 290.1,-99.11"/>
<polygon fill="black" stroke="black" points="293.43,-100.18 293.05,-89.59 286.74,-98.1 293.43,-100.18"/>
<text text-anchor="middle" x="377.7" y="-109.7" font-family="Cascadia Mono" font-size="14.00">part.MakeFoldTech(...)</text>
</g>
<!-- flat&#45;&gt;foldable -->
<g id="edge8" class="edge">
<title>flat&#45;&gt;foldable</title>
<path fill="none" stroke="black" d="M503.21,-156.59C497.56,-155.76 491.92,-155.05 486.44,-154.5 417.12,-147.58 399.06,-148.16 329.69,-154.5 327.88,-154.67 326.06,-154.85 324.23,-155.04"/>
<polygon fill="black" stroke="black" points="323.89,-151.55 314.37,-156.21 324.72,-158.51 323.89,-151.55"/>
<text text-anchor="middle" x="408.06" y="-158.45" font-family="Cascadia Mono" font-size="14.00"> &#160;part.FoldTo3D() &#160;</text>
</g>
<!-- cut -->
<g id="node6" class="node">
<title>cut</title>
<polygon fill="lightyellow" stroke="black" points="668,-87.75 665,-91.75 644,-91.75 641,-87.75 505.75,-87.75 505.75,0 668,0 668,-87.75"/>
<text text-anchor="middle" x="586.88" y="-68.55" font-family="Verdana" font-size="16.00">Cut CAM</text>
<text text-anchor="middle" x="586.88" y="-48.3" font-family="Verdana" font-size="16.00">Technology</text>
<text text-anchor="middle" x="586.88" y="-9.05" font-family="Verdana" font-size="16.00"> part.CutTech get </text>
</g>
<!-- flat&#45;&gt;cut -->
<g id="edge2" class="edge">
<title>flat&#45;&gt;cut</title>
<path fill="none" stroke="black" d="M586.88,-140.56C586.88,-128.09 586.88,-113.56 586.88,-99.65"/>
<polygon fill="black" stroke="black" points="590.38,-99.68 586.88,-89.68 583.38,-99.68 590.38,-99.68"/>
<text text-anchor="middle" x="677.62" y="-109.7" font-family="Cascadia Mono" font-size="14.00"> part.MakeCutTech(...)</text>
</g>
</g>
</svg>
